# xmcd
#
# Track frame offsets: 
#        150
#        14280
#        29757
#        41935
#        54907
#        71357
#        84785
#        97975
#        115527
#        132940
#
# Disc length: 1932 seconds
#
# Revision: 1
# Processed by: cddbd v1.4PL0 Copyright (c) Steve Scherf et al.
# Submitted via: ExactAudioCopy v0.90b3
#
DISCID=76078a0a
DTITLE=David Allan Coe - Crazy Daddy
DYEAR=1900
DGENRE=Country
TTITLE0=Crazy Daddy
TTITLE1=If Only Your Eyes Could Lie
TTITLE2=Southern Star
TTITLE3=She Ain't You
TTITLE4=Too Close To Home
TTITLE5=Jody Like A Melody
TTITLE6=I've Enjoyed As Much Of This As I Can Stand
TTITLE7=Actions Speak Louder Than Words
TTITLE8=Love Is A Never Ending War
TTITLE9=Wild Irish Rose
EXTD=
EXTT0=
EXTT1=
EXTT2=
EXTT3=
EXTT4=
EXTT5=
EXTT6=
EXTT7=
EXTT8=
EXTT9=
PLAYORDER=
